<svg xmlns="http://www.w3.org/2000/svg" width="150" height="136.08" viewBox="0 0 150 136.08">
  <g id="icon-1719742" transform="translate(-53 -59.96)">
    <rect id="Rectangle_1" data-name="Rectangle 1" width="4" height="8" transform="translate(126 148)" fill="#fff"/>
    <rect id="Rectangle_2" data-name="Rectangle 2" width="4" height="8" transform="translate(126 100)" fill="#fff"/>
    <rect id="Rectangle_3" data-name="Rectangle 3" width="8" height="4" transform="translate(100 126)" fill="#fff"/>
    <rect id="Rectangle_4" data-name="Rectangle 4" width="8" height="4" transform="translate(148 126)" fill="#fff"/>
    <rect id="Rectangle_5" data-name="Rectangle 5" width="8.004" height="4" transform="translate(143.546 140.726) rotate(45)" fill="#fff"/>
    <rect id="Rectangle_6" data-name="Rectangle 6" width="8.004" height="4" transform="translate(109.606 106.786) rotate(45)" fill="#fff"/>
    <rect id="Rectangle_7" data-name="Rectangle 7" width="4" height="8.004" transform="translate(112.445 140.725) rotate(45)" fill="#fff"/>
    <rect id="Rectangle_8" data-name="Rectangle 8" width="4" height="8.004" transform="translate(146.383 106.786) rotate(45)" fill="#fff"/>
    <path id="Path_1" data-name="Path 1" d="M153.47,196.04c-7.24,0-15.424-2.77-23.984-8.229-13.369-8.525-26.188-22.671-36.1-39.831S77.643,112.647,76.944,96.806C76.225,80.5,81.038,68.51,90.5,63.048s22.249-3.635,36.012,5.141C139.878,76.714,152.7,90.86,162.6,108.02s15.748,35.333,16.447,51.174c.719,16.308-4.1,28.3-13.554,33.757A23.715,23.715,0,0,1,153.47,196.04ZM102.548,63.96A19.816,19.816,0,0,0,92.5,66.512c-8.1,4.678-12.208,15.374-11.558,30.117.671,15.21,6.323,32.737,15.916,49.351s21.943,30.271,34.78,38.458c12.443,7.935,23.757,9.727,31.861,5.05s12.208-15.374,11.558-30.117c-.671-15.21-6.323-32.737-15.916-49.351S137.2,79.749,124.358,71.562c-7.9-5.04-15.351-7.6-21.81-7.6Z" fill="#fff"/>
    <path id="Path_2" data-name="Path 2" d="M102.53,196.04A23.715,23.715,0,0,1,90.5,192.952c-9.459-5.461-14.272-17.45-13.554-33.757.7-15.841,6.54-34.015,16.447-51.174s22.726-31.305,36.1-39.831c13.762-8.775,26.553-10.6,36.012-5.141s14.272,17.45,13.554,33.757c-.7,15.841-6.54,34.015-16.447,51.174s-22.726,31.305-36.1,39.831c-8.56,5.458-16.744,8.229-23.985,8.229ZM153.452,63.96c-6.459,0-13.906,2.562-21.811,7.6-12.837,8.187-25.188,21.844-34.78,38.458s-15.245,34.14-15.916,49.351c-.65,14.743,3.454,25.439,11.558,30.117s19.417,2.885,31.861-5.05c12.837-8.187,25.188-21.844,34.78-38.458s15.245-34.14,15.916-49.351c.65-14.743-3.454-25.439-11.558-30.117a19.82,19.82,0,0,0-10.05-2.552Z" fill="#fff"/>
    <path id="Path_3" data-name="Path 3" d="M128,167.96c-19.814,0-38.474-4.029-52.541-11.344C60.976,149.085,53,138.922,53,128s7.976-21.085,22.459-28.616C89.526,92.069,108.186,88.04,128,88.04s38.474,4.029,52.541,11.344C195.024,106.915,203,117.078,203,128s-7.976,21.085-22.459,28.616C166.474,163.931,147.814,167.96,128,167.96Zm0-75.92c-39.149,0-71,16.131-71,35.96s31.851,35.96,71,35.96,71-16.131,71-35.96-31.851-35.96-71-35.96Z" fill="#fff"/>
    <circle id="Ellipse_1" data-name="Ellipse 1" cx="15" cy="15" r="15" transform="translate(113 113)" fill="#ff8c1a"/>
    <path id="Path_4" data-name="Path 4" d="M128,145a17,17,0,1,1,17-17A17.019,17.019,0,0,1,128,145Zm0-30a13,13,0,1,0,13,13A13.015,13.015,0,0,0,128,115Z" fill="#fff"/>
  </g>
</svg>
